<svg xmlns="http://www.w3.org/2000/svg" xmlns:xlink="http://www.w3.org/1999/xlink" width="173" zoomAndPan="magnify" viewBox="0 0 129.75 30.000001" height="40" preserveAspectRatio="xMidYMid meet" version="1.0"><defs><g/><clipPath id="a00ee71f81"><path d="M 1.972656 0 L 127.535156 0 L 127.535156 29.03125 L 1.972656 29.03125 Z M 1.972656 0 " clip-rule="nonzero"/></clipPath><clipPath id="3e57fab15b"><path d="M 1.972656 0 L 127.535156 0 L 127.535156 27 L 1.972656 27 Z M 1.972656 0 " clip-rule="nonzero"/></clipPath><clipPath id="7a369c409d"><rect x="0" width="127" y="0" height="27"/></clipPath></defs><g clip-path="url(#a00ee71f81)"><path fill="#ffffff" d="M 1.972656 0 L 127.535156 0 L 127.535156 29.03125 L 1.972656 29.03125 Z M 1.972656 0 " fill-opacity="1" fill-rule="nonzero"/><path fill="#ffffff" d="M 1.972656 0 L 127.535156 0 L 127.535156 29.03125 L 1.972656 29.03125 Z M 1.972656 0 " fill-opacity="1" fill-rule="nonzero"/></g><g clip-path="url(#3e57fab15b)"><g transform="matrix(1, 0, 0, 1, 1, 0.000000000000005773)"><g clip-path="url(#7a369c409d)"><g fill="#b19316" fill-opacity="1"><g transform="translate(1.01046, 20.706149)"><g><path d="M 2.09375 0 L 2.09375 -15.4375 L 6.515625 -15.4375 C 8.296875 -15.4375 9.710938 -15.132812 10.765625 -14.53125 C 11.828125 -13.925781 12.359375 -13.015625 12.359375 -11.796875 C 12.359375 -10.941406 12.054688 -10.195312 11.453125 -9.5625 C 10.859375 -8.9375 10.023438 -8.460938 8.953125 -8.140625 C 10.367188 -7.878906 11.4375 -7.398438 12.15625 -6.703125 C 12.882812 -6.015625 13.25 -5.257812 13.25 -4.4375 C 13.25 -3.613281 13.035156 -2.910156 12.609375 -2.328125 C 12.191406 -1.742188 11.660156 -1.296875 11.015625 -0.984375 C 9.691406 -0.328125 8.335938 0 6.953125 0 Z M 4.359375 -8.375 L 6.046875 -8.375 C 7.460938 -8.375 8.472656 -8.6875 9.078125 -9.3125 C 9.691406 -9.945312 10 -10.738281 10 -11.6875 C 10 -12.320312 9.785156 -12.898438 9.359375 -13.421875 C 8.929688 -13.941406 8.273438 -14.335938 7.390625 -14.609375 C 6.335938 -14.609375 5.328125 -14.453125 4.359375 -14.140625 Z M 4.359375 -7.703125 L 4.359375 -1.046875 C 4.859375 -0.890625 5.628906 -0.8125 6.671875 -0.8125 C 7.710938 -0.8125 8.632812 -1.097656 9.4375 -1.671875 C 10.25 -2.253906 10.65625 -3.054688 10.65625 -4.078125 C 10.65625 -5.109375 10.210938 -5.96875 9.328125 -6.65625 C 8.441406 -7.351562 7.378906 -7.703125 6.140625 -7.703125 Z M 4.359375 -7.703125 "/></g></g></g><g fill="#b19316" fill-opacity="1"><g transform="translate(16.021669, 20.706149)"><g><path d="M 3.703125 -15.9375 L 3.703125 0 L 1.75 0 L 1.75 -15.9375 Z M 3.703125 -15.9375 "/></g></g></g><g fill="#b19316" fill-opacity="1"><g transform="translate(21.476055, 20.706149)"><g><path d="M 6.25 -10.828125 C 7.625 -10.828125 8.753906 -10.359375 9.640625 -9.421875 C 10.535156 -8.492188 10.984375 -7.210938 10.984375 -5.578125 C 10.984375 -4.535156 10.804688 -3.617188 10.453125 -2.828125 C 10.097656 -2.035156 9.628906 -1.421875 9.046875 -0.984375 C 7.941406 -0.140625 6.707031 0.28125 5.34375 0.28125 C 3.988281 0.28125 2.863281 -0.179688 1.96875 -1.109375 C 1.070312 -2.046875 0.625 -3.332031 0.625 -4.96875 C 0.625 -6.007812 0.796875 -6.925781 1.140625 -7.71875 C 1.492188 -8.507812 1.960938 -9.125 2.546875 -9.5625 C 3.648438 -10.40625 4.882812 -10.828125 6.25 -10.828125 Z M 5.78125 -0.515625 C 6.46875 -0.515625 7.050781 -0.78125 7.53125 -1.3125 C 8.40625 -2.238281 8.84375 -3.472656 8.84375 -5.015625 C 8.84375 -6.566406 8.578125 -7.773438 8.046875 -8.640625 C 7.515625 -9.503906 6.648438 -9.9375 5.453125 -9.9375 C 4.566406 -9.59375 3.894531 -8.988281 3.4375 -8.125 C 2.976562 -7.257812 2.75 -6.21875 2.75 -5 C 2.75 -3.78125 3 -2.726562 3.5 -1.84375 C 4 -0.957031 4.757812 -0.515625 5.78125 -0.515625 Z M 5.78125 -0.515625 "/></g></g></g><g fill="#b19316" fill-opacity="1"><g transform="translate(33.130717, 20.706149)"><g><path d="M 6.25 -10.828125 C 7.625 -10.828125 8.753906 -10.359375 9.640625 -9.421875 C 10.535156 -8.492188 10.984375 -7.210938 10.984375 -5.578125 C 10.984375 -4.535156 10.804688 -3.617188 10.453125 -2.828125 C 10.097656 -2.035156 9.628906 -1.421875 9.046875 -0.984375 C 7.941406 -0.140625 6.707031 0.28125 5.34375 0.28125 C 3.988281 0.28125 2.863281 -0.179688 1.96875 -1.109375 C 1.070312 -2.046875 0.625 -3.332031 0.625 -4.96875 C 0.625 -6.007812 0.796875 -6.925781 1.140625 -7.71875 C 1.492188 -8.507812 1.960938 -9.125 2.546875 -9.5625 C 3.648438 -10.40625 4.882812 -10.828125 6.25 -10.828125 Z M 5.78125 -0.515625 C 6.46875 -0.515625 7.050781 -0.78125 7.53125 -1.3125 C 8.40625 -2.238281 8.84375 -3.472656 8.84375 -5.015625 C 8.84375 -6.566406 8.578125 -7.773438 8.046875 -8.640625 C 7.515625 -9.503906 6.648438 -9.9375 5.453125 -9.9375 C 4.566406 -9.59375 3.894531 -8.988281 3.4375 -8.125 C 2.976562 -7.257812 2.75 -6.21875 2.75 -5 C 2.75 -3.78125 3 -2.726562 3.5 -1.84375 C 4 -0.957031 4.757812 -0.515625 5.78125 -0.515625 Z M 5.78125 -0.515625 "/></g></g></g><g fill="#b19316" fill-opacity="1"><g transform="translate(44.785379, 20.706149)"><g><path d="M 13.71875 -10.828125 C 15.550781 -10.828125 16.46875 -9.4375 16.46875 -6.65625 L 16.46875 0 L 14.515625 0 L 14.515625 -6.828125 C 14.515625 -8.140625 14.265625 -8.9375 13.765625 -9.21875 C 13.515625 -9.351562 13.164062 -9.421875 12.71875 -9.421875 C 12.28125 -9.421875 11.804688 -9.285156 11.296875 -9.015625 C 10.796875 -8.742188 10.425781 -8.4375 10.1875 -8.09375 L 10.1875 0 L 8.21875 0 L 8.21875 -6.953125 C 8.21875 -7.773438 8.09375 -8.390625 7.84375 -8.796875 C 7.59375 -9.210938 7.222656 -9.421875 6.734375 -9.421875 C 6.253906 -9.421875 5.789062 -9.3125 5.34375 -9.09375 C 4.90625 -8.875 4.550781 -8.65625 4.28125 -8.4375 C 4.019531 -8.226562 3.890625 -8.097656 3.890625 -8.046875 L 3.890625 0 L 1.9375 0 L 1.9375 -7.328125 C 1.9375 -8.378906 1.539062 -9.226562 0.75 -9.875 L 1.9375 -10.75 L 3.796875 -9.046875 C 4.535156 -9.660156 5.175781 -10.109375 5.71875 -10.390625 C 6.257812 -10.679688 6.828125 -10.828125 7.421875 -10.828125 C 8.773438 -10.828125 9.613281 -10.195312 9.9375 -8.9375 C 10.476562 -9.5625 11.097656 -10.03125 11.796875 -10.34375 C 12.503906 -10.664062 13.144531 -10.828125 13.71875 -10.828125 Z M 13.71875 -10.828125 "/></g></g></g><g fill="#b19316" fill-opacity="1"><g transform="translate(62.920027, 20.706149)"><g><path d="M 9.890625 -3.125 C 9.890625 -2.050781 10.285156 -1.195312 11.078125 -0.5625 L 9.890625 0.296875 L 7.984375 -1.40625 C 7.359375 -0.8125 6.796875 -0.378906 6.296875 -0.109375 C 5.796875 0.148438 5.28125 0.28125 4.75 0.28125 C 4.226562 0.28125 3.765625 0.203125 3.359375 0.046875 C 2.953125 -0.109375 2.523438 -0.367188 2.078125 -0.734375 C 1.640625 -1.097656 1.285156 -1.671875 1.015625 -2.453125 C 0.742188 -3.242188 0.609375 -4.257812 0.609375 -5.5 C 0.609375 -6.75 0.976562 -7.941406 1.71875 -9.078125 C 2.457031 -10.222656 3.472656 -10.796875 4.765625 -10.796875 C 5.722656 -10.796875 6.769531 -10.441406 7.90625 -9.734375 L 7.90625 -15.9375 L 9.890625 -15.9375 Z M 7.90625 -2.359375 L 7.90625 -8.859375 C 7.082031 -9.410156 6.328125 -9.6875 5.640625 -9.6875 C 4.742188 -9.6875 4.019531 -9.257812 3.46875 -8.40625 C 2.925781 -7.5625 2.65625 -6.5 2.65625 -5.21875 C 2.65625 -3.945312 2.851562 -2.925781 3.25 -2.15625 C 3.644531 -1.382812 4.140625 -0.921875 4.734375 -0.765625 C 5.273438 -0.816406 5.804688 -0.953125 6.328125 -1.171875 C 6.847656 -1.390625 7.238281 -1.609375 7.5 -1.828125 C 7.769531 -2.054688 7.90625 -2.234375 7.90625 -2.359375 Z M 7.90625 -2.359375 "/></g></g></g><g fill="#b19316" fill-opacity="1"><g transform="translate(74.574689, 20.706149)"><g><path d="M 2.453125 -5.734375 C 2.453125 -4.054688 2.828125 -2.847656 3.578125 -2.109375 C 4.335938 -1.367188 5.253906 -1 6.328125 -1 C 7.410156 -1 8.410156 -1.210938 9.328125 -1.640625 L 9.328125 -0.8125 C 8.054688 -0.0820312 6.835938 0.28125 5.671875 0.28125 C 4.160156 0.28125 2.9375 -0.175781 2 -1.09375 C 1.070312 -2.007812 0.609375 -3.335938 0.609375 -5.078125 C 0.609375 -6.828125 1.125 -8.222656 2.15625 -9.265625 C 3.1875 -10.304688 4.4375 -10.828125 5.90625 -10.828125 C 7.039062 -10.828125 7.988281 -10.378906 8.75 -9.484375 C 9.507812 -8.585938 9.890625 -7.335938 9.890625 -5.734375 Z M 4.71875 -9.734375 C 4.164062 -9.460938 3.695312 -9.035156 3.3125 -8.453125 C 2.925781 -7.867188 2.671875 -7.195312 2.546875 -6.4375 L 8 -6.4375 C 7.957031 -7.09375 7.804688 -7.648438 7.546875 -8.109375 C 7.285156 -8.578125 6.976562 -8.921875 6.625 -9.140625 C 5.988281 -9.535156 5.351562 -9.734375 4.71875 -9.734375 Z M 4.71875 -9.734375 "/></g></g></g><g fill="#b19316" fill-opacity="1"><g transform="translate(85.506754, 20.706149)"><g><path d="M 5.3125 0.28125 C 3.96875 0.28125 2.847656 -0.179688 1.953125 -1.109375 C 1.054688 -2.035156 0.609375 -3.34375 0.609375 -5.03125 C 0.609375 -6.726562 1.082031 -8.117188 2.03125 -9.203125 C 2.988281 -10.285156 4.207031 -10.828125 5.6875 -10.828125 C 6.507812 -10.828125 7.4375 -10.625 8.46875 -10.21875 L 8.234375 -8.671875 C 6.867188 -9.390625 5.695312 -9.75 4.71875 -9.75 C 3.90625 -9.34375 3.316406 -8.6875 2.953125 -7.78125 C 2.597656 -6.882812 2.421875 -6 2.421875 -5.125 C 2.421875 -3.945312 2.765625 -2.960938 3.453125 -2.171875 C 4.148438 -1.390625 4.976562 -1 5.9375 -1 C 6.90625 -1 7.796875 -1.210938 8.609375 -1.640625 L 8.609375 -0.8125 C 7.484375 -0.0820312 6.382812 0.28125 5.3125 0.28125 Z M 5.3125 0.28125 "/></g></g></g><g fill="#b19316" fill-opacity="1"><g transform="translate(94.970333, 20.706149)"><g><path d="M 6.25 -10.828125 C 7.625 -10.828125 8.753906 -10.359375 9.640625 -9.421875 C 10.535156 -8.492188 10.984375 -7.210938 10.984375 -5.578125 C 10.984375 -4.535156 10.804688 -3.617188 10.453125 -2.828125 C 10.097656 -2.035156 9.628906 -1.421875 9.046875 -0.984375 C 7.941406 -0.140625 6.707031 0.28125 5.34375 0.28125 C 3.988281 0.28125 2.863281 -0.179688 1.96875 -1.109375 C 1.070312 -2.046875 0.625 -3.332031 0.625 -4.96875 C 0.625 -6.007812 0.796875 -6.925781 1.140625 -7.71875 C 1.492188 -8.507812 1.960938 -9.125 2.546875 -9.5625 C 3.648438 -10.40625 4.882812 -10.828125 6.25 -10.828125 Z M 5.78125 -0.515625 C 6.46875 -0.515625 7.050781 -0.78125 7.53125 -1.3125 C 8.40625 -2.238281 8.84375 -3.472656 8.84375 -5.015625 C 8.84375 -6.566406 8.578125 -7.773438 8.046875 -8.640625 C 7.515625 -9.503906 6.648438 -9.9375 5.453125 -9.9375 C 4.566406 -9.59375 3.894531 -8.988281 3.4375 -8.125 C 2.976562 -7.257812 2.75 -6.21875 2.75 -5 C 2.75 -3.78125 3 -2.726562 3.5 -1.84375 C 4 -0.957031 4.757812 -0.515625 5.78125 -0.515625 Z M 5.78125 -0.515625 "/></g></g></g><g fill="#b19316" fill-opacity="1"><g transform="translate(106.624995, 20.706149)"><g><path d="M 9.265625 -3.125 C 9.265625 -2.050781 9.664062 -1.203125 10.46875 -0.578125 L 9.265625 0.28125 L 7.375 -1.421875 C 6.738281 -0.816406 6.171875 -0.378906 5.671875 -0.109375 C 5.171875 0.148438 4.582031 0.28125 3.90625 0.28125 C 3.226562 0.28125 2.601562 0.0195312 2.03125 -0.5 C 1.46875 -1.019531 1.1875 -1.921875 1.1875 -3.203125 L 1.1875 -10.546875 L 3.171875 -10.546875 L 3.171875 -3.078125 C 3.171875 -2.328125 3.304688 -1.757812 3.578125 -1.375 C 3.847656 -1 4.320312 -0.8125 5 -0.8125 C 5.675781 -0.8125 6.4375 -1.3125 7.28125 -2.3125 L 7.28125 -10.546875 L 9.265625 -10.546875 Z M 9.265625 -3.125 "/></g></g></g><g fill="#b19316" fill-opacity="1"><g transform="translate(117.813479, 20.706149)"><g><path d="M 3.9375 -9.84375 C 3.53125 -9.84375 3.195312 -9.691406 2.9375 -9.390625 C 2.6875 -9.085938 2.5625 -8.742188 2.5625 -8.359375 C 2.5625 -7.984375 2.742188 -7.617188 3.109375 -7.265625 C 3.472656 -6.910156 3.914062 -6.597656 4.4375 -6.328125 C 4.957031 -6.054688 5.472656 -5.769531 5.984375 -5.46875 C 6.503906 -5.175781 6.945312 -4.796875 7.3125 -4.328125 C 7.675781 -3.867188 7.859375 -3.351562 7.859375 -2.78125 C 7.859375 -1.90625 7.507812 -1.175781 6.8125 -0.59375 C 6.113281 -0.0078125 5.160156 0.28125 3.953125 0.28125 C 2.742188 0.28125 1.644531 0 0.65625 -0.5625 L 0.65625 -1.453125 C 1.707031 -0.921875 2.660156 -0.65625 3.515625 -0.65625 C 4.378906 -0.65625 5.003906 -0.820312 5.390625 -1.15625 C 5.773438 -1.5 5.96875 -1.894531 5.96875 -2.34375 C 5.96875 -2.789062 5.789062 -3.1875 5.4375 -3.53125 C 5.09375 -3.882812 4.664062 -4.191406 4.15625 -4.453125 C 3.65625 -4.722656 3.15625 -5.003906 2.65625 -5.296875 C 2.15625 -5.585938 1.726562 -5.96875 1.375 -6.4375 C 1.03125 -6.90625 0.859375 -7.46875 0.859375 -8.125 C 0.859375 -8.789062 1.125 -9.40625 1.65625 -9.96875 C 2.195312 -10.539062 3.023438 -10.828125 4.140625 -10.828125 C 5.265625 -10.828125 6.34375 -10.625 7.375 -10.21875 L 7.140625 -8.671875 C 5.984375 -9.296875 4.914062 -9.6875 3.9375 -9.84375 Z M 3.9375 -9.84375 "/></g></g></g></g></g></g></svg>