<svg xmlns="http://www.w3.org/2000/svg" xmlns:xlink="http://www.w3.org/1999/xlink" width="173" zoomAndPan="magnify" viewBox="0 0 129.75 30.000001" height="40" preserveAspectRatio="xMidYMid meet" version="1.0"><defs><g/><clipPath id="681c1f6eb3"><path d="M 118 10 L 127.535156 10 L 127.535156 22 L 118 22 Z M 118 10 " clip-rule="nonzero"/></clipPath></defs><g fill="#b19316" fill-opacity="1"><g transform="translate(2.153243, 21.133925)"><g><path d="M 0.546875 0.234375 C 0.472656 0.128906 0.421875 0.0234375 0.390625 -0.078125 C 0.367188 -0.179688 0.359375 -0.285156 0.359375 -0.390625 L 0.359375 -0.4375 C 0.359375 -0.4375 0.359375 -0.453125 0.359375 -0.484375 C 0.378906 -0.835938 0.503906 -1.078125 0.734375 -1.203125 C 0.878906 -1.304688 1.097656 -1.359375 1.390625 -1.359375 C 1.679688 -1.359375 1.878906 -1.390625 1.984375 -1.453125 C 2.078125 -1.523438 2.128906 -1.609375 2.140625 -1.703125 C 2.179688 -1.890625 2.210938 -2.132812 2.234375 -2.4375 L 2.234375 -10.71875 C 2.210938 -11.019531 2.179688 -11.257812 2.140625 -11.4375 C 2.128906 -11.476562 2.113281 -11.519531 2.09375 -11.5625 C 2.070312 -11.601562 2.035156 -11.640625 1.984375 -11.671875 C 1.878906 -11.753906 1.679688 -11.796875 1.390625 -11.796875 L 1.265625 -11.796875 C 1.210938 -11.796875 1.164062 -11.796875 1.125 -11.796875 C 1.082031 -11.804688 1.03125 -11.816406 0.96875 -11.828125 C 0.90625 -11.835938 0.84375 -11.851562 0.78125 -11.875 C 0.726562 -11.90625 0.679688 -11.945312 0.640625 -12 C 0.597656 -12.03125 0.566406 -12.054688 0.546875 -12.078125 C 0.523438 -12.097656 0.503906 -12.125 0.484375 -12.15625 C 0.460938 -12.195312 0.445312 -12.226562 0.4375 -12.25 C 0.425781 -12.269531 0.414062 -12.296875 0.40625 -12.328125 C 0.394531 -12.359375 0.382812 -12.382812 0.375 -12.40625 C 0.375 -12.425781 0.375 -12.453125 0.375 -12.484375 C 0.375 -12.523438 0.367188 -12.550781 0.359375 -12.5625 C 0.359375 -12.582031 0.359375 -12.613281 0.359375 -12.65625 C 0.359375 -12.695312 0.359375 -12.71875 0.359375 -12.71875 L 0.359375 -12.75 C 0.359375 -12.8125 0.359375 -12.867188 0.359375 -12.921875 C 0.367188 -12.972656 0.378906 -13.023438 0.390625 -13.078125 C 0.410156 -13.128906 0.429688 -13.175781 0.453125 -13.21875 C 0.484375 -13.269531 0.515625 -13.320312 0.546875 -13.375 C 0.597656 -13.445312 0.660156 -13.507812 0.734375 -13.5625 C 0.816406 -13.625 0.898438 -13.664062 0.984375 -13.6875 C 1.078125 -13.71875 1.164062 -13.734375 1.25 -13.734375 L 1.265625 -13.734375 C 1.710938 -13.703125 2.140625 -13.679688 2.546875 -13.671875 C 2.960938 -13.671875 3.347656 -13.671875 3.703125 -13.671875 L 6.65625 -13.671875 C 6.84375 -13.671875 7.023438 -13.664062 7.203125 -13.65625 C 7.390625 -13.65625 7.566406 -13.644531 7.734375 -13.625 C 7.898438 -13.613281 8.054688 -13.597656 8.203125 -13.578125 C 8.347656 -13.554688 8.488281 -13.523438 8.625 -13.484375 C 9.15625 -13.359375 9.632812 -13.164062 10.0625 -12.90625 C 10.269531 -12.757812 10.460938 -12.585938 10.640625 -12.390625 C 10.816406 -12.191406 10.96875 -11.972656 11.09375 -11.734375 C 11.34375 -11.242188 11.46875 -10.71875 11.46875 -10.15625 C 11.46875 -9.65625 11.378906 -9.195312 11.203125 -8.78125 C 11.023438 -8.375 10.769531 -8.019531 10.4375 -7.71875 C 10.257812 -7.550781 10.0625 -7.394531 9.84375 -7.25 C 10.019531 -7.1875 10.175781 -7.117188 10.3125 -7.046875 C 11 -6.722656 11.53125 -6.285156 11.90625 -5.734375 C 12.09375 -5.441406 12.234375 -5.140625 12.328125 -4.828125 C 12.429688 -4.523438 12.484375 -4.207031 12.484375 -3.875 C 12.484375 -3.664062 12.46875 -3.457031 12.4375 -3.25 C 12.414062 -3.050781 12.375 -2.859375 12.3125 -2.671875 C 12.257812 -2.484375 12.191406 -2.304688 12.109375 -2.140625 C 12.035156 -1.972656 11.941406 -1.8125 11.828125 -1.65625 C 11.722656 -1.5 11.601562 -1.347656 11.46875 -1.203125 C 10.820312 -0.566406 10.019531 -0.109375 9.0625 0.171875 C 8.144531 0.421875 7.203125 0.546875 6.234375 0.546875 L 3.734375 0.515625 C 2.992188 0.515625 2.171875 0.535156 1.265625 0.578125 L 1.25 0.578125 C 0.945312 0.578125 0.710938 0.460938 0.546875 0.234375 Z M 5.6875 -7.9375 C 6.207031 -7.9375 6.660156 -7.972656 7.046875 -8.046875 C 7.335938 -8.117188 7.601562 -8.289062 7.84375 -8.5625 C 8.070312 -8.8125 8.1875 -9.257812 8.1875 -9.90625 C 8.1875 -10.613281 8.039062 -11.113281 7.75 -11.40625 C 7.457031 -11.707031 6.96875 -11.859375 6.28125 -11.859375 L 5.34375 -11.859375 L 5.34375 -7.9375 Z M 8.46875 -1.984375 C 8.9375 -2.367188 9.175781 -3.035156 9.1875 -3.984375 C 9.125 -4.566406 8.84375 -5.050781 8.34375 -5.4375 C 7.800781 -5.851562 6.910156 -6.0625 5.671875 -6.0625 L 5.34375 -6.0625 L 5.34375 -2.4375 C 5.34375 -2.03125 5.375 -1.742188 5.4375 -1.578125 C 5.476562 -1.484375 5.519531 -1.429688 5.5625 -1.421875 C 5.601562 -1.398438 5.65625 -1.382812 5.71875 -1.375 C 5.78125 -1.363281 5.863281 -1.351562 5.96875 -1.34375 C 6.070312 -1.332031 6.1875 -1.328125 6.3125 -1.328125 C 7.21875 -1.347656 7.9375 -1.566406 8.46875 -1.984375 Z M 8.46875 -1.984375 "/></g></g></g><g fill="#b19316" fill-opacity="1"><g transform="translate(14.736277, 21.133925)"><g><path d="M 0.171875 0.25 C 0.0234375 0.0703125 -0.046875 -0.128906 -0.046875 -0.359375 L -0.046875 -0.390625 C -0.015625 -0.753906 0.109375 -1 0.328125 -1.125 C 0.484375 -1.207031 0.691406 -1.25 0.953125 -1.25 C 1.191406 -1.25 1.335938 -1.269531 1.390625 -1.3125 C 1.453125 -1.363281 1.484375 -1.40625 1.484375 -1.4375 C 1.503906 -1.570312 1.515625 -1.804688 1.515625 -2.140625 L 1.515625 -12.3125 C 1.515625 -12.476562 1.507812 -12.625 1.5 -12.75 C 1.5 -12.875 1.5 -12.972656 1.5 -13.046875 L 1.421875 -13.15625 C 1.359375 -13.195312 1.210938 -13.21875 0.984375 -13.21875 C 0.710938 -13.21875 0.492188 -13.265625 0.328125 -13.359375 C 0.078125 -13.515625 -0.046875 -13.78125 -0.046875 -14.15625 C -0.046875 -14.34375 0.015625 -14.519531 0.140625 -14.6875 C 0.285156 -14.882812 0.488281 -15.003906 0.75 -15.046875 C 1.582031 -15.160156 2.289062 -15.328125 2.875 -15.546875 C 3 -15.597656 3.109375 -15.632812 3.203125 -15.65625 C 3.304688 -15.6875 3.398438 -15.707031 3.484375 -15.71875 L 3.609375 -15.71875 C 3.859375 -15.71875 4.0625 -15.625 4.21875 -15.4375 C 4.375 -15.25 4.453125 -15.035156 4.453125 -14.796875 L 4.453125 -2.140625 C 4.453125 -1.804688 4.46875 -1.570312 4.5 -1.4375 L 4.578125 -1.3125 C 4.578125 -1.3125 4.59375 -1.304688 4.625 -1.296875 C 4.65625 -1.296875 4.703125 -1.285156 4.765625 -1.265625 C 4.835938 -1.253906 4.921875 -1.25 5.015625 -1.25 L 5.140625 -1.25 C 5.367188 -1.25 5.5625 -1.191406 5.71875 -1.078125 C 5.894531 -0.941406 6 -0.710938 6.03125 -0.390625 L 6.03125 -0.359375 C 6.03125 -0.328125 6.03125 -0.296875 6.03125 -0.265625 C 6.03125 -0.242188 6.023438 -0.21875 6.015625 -0.1875 C 6.003906 -0.15625 5.992188 -0.125 5.984375 -0.09375 C 5.984375 -0.0703125 5.976562 -0.046875 5.96875 -0.015625 C 5.96875 0.00390625 5.957031 0.03125 5.9375 0.0625 C 5.925781 0.09375 5.910156 0.117188 5.890625 0.140625 C 5.878906 0.171875 5.867188 0.203125 5.859375 0.234375 C 5.804688 0.296875 5.738281 0.351562 5.65625 0.40625 C 5.582031 0.46875 5.503906 0.507812 5.421875 0.53125 C 5.335938 0.5625 5.253906 0.578125 5.171875 0.578125 L 5.140625 0.578125 C 4.335938 0.535156 3.617188 0.515625 2.984375 0.515625 C 2.671875 0.515625 2.332031 0.519531 1.96875 0.53125 C 1.613281 0.539062 1.234375 0.554688 0.828125 0.578125 L 0.8125 0.578125 C 0.53125 0.578125 0.316406 0.46875 0.171875 0.25 Z M 0.171875 0.25 "/></g></g></g><g fill="#b19316" fill-opacity="1"><g transform="translate(20.548642, 21.133925)"><g><path d="M 2.921875 0.015625 C 2.710938 -0.109375 2.515625 -0.242188 2.328125 -0.390625 C 2.148438 -0.535156 1.976562 -0.691406 1.8125 -0.859375 C 1.65625 -1.023438 1.507812 -1.203125 1.375 -1.390625 C 1.25 -1.578125 1.128906 -1.765625 1.015625 -1.953125 C 0.554688 -2.785156 0.328125 -3.660156 0.328125 -4.578125 C 0.328125 -5.722656 0.597656 -6.726562 1.140625 -7.59375 C 1.671875 -8.4375 2.351562 -9.082031 3.1875 -9.53125 C 4.019531 -9.988281 4.863281 -10.21875 5.71875 -10.21875 C 6.226562 -10.21875 6.71875 -10.15625 7.1875 -10.03125 C 7.664062 -9.90625 8.101562 -9.71875 8.5 -9.46875 C 9.320312 -8.96875 9.957031 -8.300781 10.40625 -7.46875 C 10.863281 -6.644531 11.09375 -5.773438 11.09375 -4.859375 C 11.09375 -3.710938 10.820312 -2.710938 10.28125 -1.859375 C 9.738281 -1.003906 9.050781 -0.351562 8.21875 0.09375 C 7.382812 0.539062 6.550781 0.765625 5.71875 0.765625 C 4.664062 0.765625 3.734375 0.515625 2.921875 0.015625 Z M 7.34375 -1.984375 C 7.40625 -2.117188 7.46875 -2.265625 7.53125 -2.421875 C 7.59375 -2.585938 7.648438 -2.757812 7.703125 -2.9375 C 7.753906 -3.113281 7.796875 -3.300781 7.828125 -3.5 C 7.859375 -3.707031 7.878906 -3.925781 7.890625 -4.15625 C 7.910156 -4.382812 7.921875 -4.617188 7.921875 -4.859375 C 7.921875 -5.953125 7.71875 -6.84375 7.3125 -7.53125 C 6.96875 -8.113281 6.4375 -8.40625 5.71875 -8.40625 C 5.3125 -8.40625 4.976562 -8.332031 4.71875 -8.1875 C 4.457031 -8.039062 4.242188 -7.804688 4.078125 -7.484375 C 3.953125 -7.242188 3.847656 -6.984375 3.765625 -6.703125 C 3.679688 -6.421875 3.613281 -6.101562 3.5625 -5.75 C 3.519531 -5.40625 3.5 -5.03125 3.5 -4.625 C 3.5 -3.53125 3.703125 -2.632812 4.109375 -1.9375 C 4.285156 -1.632812 4.5 -1.410156 4.75 -1.265625 C 5 -1.117188 5.320312 -1.046875 5.71875 -1.046875 C 5.976562 -1.046875 6.203125 -1.078125 6.390625 -1.140625 C 6.585938 -1.210938 6.765625 -1.3125 6.921875 -1.4375 C 7.078125 -1.570312 7.21875 -1.753906 7.34375 -1.984375 Z M 7.34375 -1.984375 "/></g></g></g><g fill="#b19316" fill-opacity="1"><g transform="translate(31.965109, 21.133925)"><g><path d="M 2.921875 0.015625 C 2.710938 -0.109375 2.515625 -0.242188 2.328125 -0.390625 C 2.148438 -0.535156 1.976562 -0.691406 1.8125 -0.859375 C 1.65625 -1.023438 1.507812 -1.203125 1.375 -1.390625 C 1.25 -1.578125 1.128906 -1.765625 1.015625 -1.953125 C 0.554688 -2.785156 0.328125 -3.660156 0.328125 -4.578125 C 0.328125 -5.722656 0.597656 -6.726562 1.140625 -7.59375 C 1.671875 -8.4375 2.351562 -9.082031 3.1875 -9.53125 C 4.019531 -9.988281 4.863281 -10.21875 5.71875 -10.21875 C 6.226562 -10.21875 6.71875 -10.15625 7.1875 -10.03125 C 7.664062 -9.90625 8.101562 -9.71875 8.5 -9.46875 C 9.320312 -8.96875 9.957031 -8.300781 10.40625 -7.46875 C 10.863281 -6.644531 11.09375 -5.773438 11.09375 -4.859375 C 11.09375 -3.710938 10.820312 -2.710938 10.28125 -1.859375 C 9.738281 -1.003906 9.050781 -0.351562 8.21875 0.09375 C 7.382812 0.539062 6.550781 0.765625 5.71875 0.765625 C 4.664062 0.765625 3.734375 0.515625 2.921875 0.015625 Z M 7.34375 -1.984375 C 7.40625 -2.117188 7.46875 -2.265625 7.53125 -2.421875 C 7.59375 -2.585938 7.648438 -2.757812 7.703125 -2.9375 C 7.753906 -3.113281 7.796875 -3.300781 7.828125 -3.5 C 7.859375 -3.707031 7.878906 -3.925781 7.890625 -4.15625 C 7.910156 -4.382812 7.921875 -4.617188 7.921875 -4.859375 C 7.921875 -5.953125 7.71875 -6.84375 7.3125 -7.53125 C 6.96875 -8.113281 6.4375 -8.40625 5.71875 -8.40625 C 5.3125 -8.40625 4.976562 -8.332031 4.71875 -8.1875 C 4.457031 -8.039062 4.242188 -7.804688 4.078125 -7.484375 C 3.953125 -7.242188 3.847656 -6.984375 3.765625 -6.703125 C 3.679688 -6.421875 3.613281 -6.101562 3.5625 -5.75 C 3.519531 -5.40625 3.5 -5.03125 3.5 -4.625 C 3.5 -3.53125 3.703125 -2.632812 4.109375 -1.9375 C 4.285156 -1.632812 4.5 -1.410156 4.75 -1.265625 C 5 -1.117188 5.320312 -1.046875 5.71875 -1.046875 C 5.976562 -1.046875 6.203125 -1.078125 6.390625 -1.140625 C 6.585938 -1.210938 6.765625 -1.3125 6.921875 -1.4375 C 7.078125 -1.570312 7.21875 -1.753906 7.34375 -1.984375 Z M 7.34375 -1.984375 "/></g></g></g><g fill="#b19316" fill-opacity="1"><g transform="translate(43.256552, 21.133925)"><g><path d="M 0.375 0.25 C 0.25 0.0703125 0.1875 -0.128906 0.1875 -0.359375 L 0.1875 -0.390625 C 0.21875 -0.753906 0.34375 -1 0.5625 -1.125 C 0.71875 -1.207031 0.925781 -1.25 1.1875 -1.25 C 1.28125 -1.25 1.363281 -1.253906 1.4375 -1.265625 C 1.507812 -1.285156 1.554688 -1.296875 1.578125 -1.296875 C 1.609375 -1.304688 1.625 -1.3125 1.625 -1.3125 C 1.675781 -1.363281 1.703125 -1.40625 1.703125 -1.4375 C 1.734375 -1.570312 1.75 -1.804688 1.75 -2.140625 L 1.75 -6.921875 C 1.75 -7.253906 1.742188 -7.5 1.734375 -7.65625 C 1.710938 -7.675781 1.679688 -7.707031 1.640625 -7.75 C 1.640625 -7.75 1.632812 -7.75 1.625 -7.75 C 1.625 -7.75 1.609375 -7.753906 1.578125 -7.765625 C 1.554688 -7.773438 1.523438 -7.78125 1.484375 -7.78125 C 1.453125 -7.789062 1.410156 -7.796875 1.359375 -7.796875 C 1.316406 -7.804688 1.265625 -7.8125 1.203125 -7.8125 C 0.941406 -7.8125 0.726562 -7.863281 0.5625 -7.96875 C 0.3125 -8.113281 0.1875 -8.375 0.1875 -8.75 C 0.1875 -8.945312 0.25 -9.128906 0.375 -9.296875 C 0.507812 -9.492188 0.710938 -9.613281 0.984375 -9.65625 C 1.148438 -9.675781 1.3125 -9.703125 1.46875 -9.734375 C 1.625 -9.765625 1.773438 -9.796875 1.921875 -9.828125 C 2.066406 -9.859375 2.207031 -9.890625 2.34375 -9.921875 C 2.488281 -9.960938 2.617188 -10 2.734375 -10.03125 C 2.859375 -10.070312 2.972656 -10.113281 3.078125 -10.15625 L 3.109375 -10.171875 L 3.125 -10.171875 C 3.375 -10.242188 3.554688 -10.289062 3.671875 -10.3125 L 3.8125 -10.3125 C 4.0625 -10.3125 4.265625 -10.21875 4.421875 -10.03125 C 4.585938 -9.84375 4.671875 -9.632812 4.671875 -9.40625 L 4.671875 -9.25 C 4.847656 -9.40625 5.023438 -9.535156 5.203125 -9.640625 C 5.378906 -9.742188 5.570312 -9.835938 5.78125 -9.921875 C 6.257812 -10.117188 6.804688 -10.21875 7.421875 -10.21875 C 7.796875 -10.21875 8.148438 -10.175781 8.484375 -10.09375 C 8.816406 -10.007812 9.128906 -9.882812 9.421875 -9.71875 C 9.503906 -9.65625 9.585938 -9.59375 9.671875 -9.53125 C 9.765625 -9.46875 9.851562 -9.398438 9.9375 -9.328125 C 10.019531 -9.253906 10.097656 -9.175781 10.171875 -9.09375 C 10.242188 -9.019531 10.304688 -8.945312 10.359375 -8.875 C 10.429688 -8.9375 10.5 -8.988281 10.5625 -9.03125 C 10.625 -9.082031 10.675781 -9.125 10.71875 -9.15625 C 10.769531 -9.195312 10.832031 -9.242188 10.90625 -9.296875 C 11.125 -9.460938 11.34375 -9.609375 11.5625 -9.734375 C 12.132812 -10.054688 12.859375 -10.21875 13.734375 -10.21875 C 14.828125 -10.21875 15.703125 -9.875 16.359375 -9.1875 C 17.015625 -8.519531 17.34375 -7.65625 17.34375 -6.59375 L 17.34375 -2.140625 C 17.34375 -2.078125 17.34375 -2.015625 17.34375 -1.953125 C 17.34375 -1.890625 17.34375 -1.832031 17.34375 -1.78125 C 17.34375 -1.726562 17.34375 -1.675781 17.34375 -1.625 C 17.351562 -1.582031 17.359375 -1.546875 17.359375 -1.515625 C 17.359375 -1.492188 17.367188 -1.46875 17.390625 -1.4375 L 17.46875 -1.3125 C 17.519531 -1.269531 17.664062 -1.25 17.90625 -1.25 L 18.03125 -1.25 C 18.25 -1.25 18.4375 -1.191406 18.59375 -1.078125 C 18.675781 -1.015625 18.738281 -0.929688 18.78125 -0.828125 C 18.832031 -0.734375 18.863281 -0.664062 18.875 -0.625 C 18.882812 -0.582031 18.894531 -0.503906 18.90625 -0.390625 L 18.90625 -0.359375 C 18.90625 -0.128906 18.84375 0.0703125 18.71875 0.25 C 18.539062 0.46875 18.316406 0.578125 18.046875 0.578125 L 18.03125 0.578125 C 17.625 0.554688 17.238281 0.539062 16.875 0.53125 C 16.519531 0.519531 16.179688 0.515625 15.859375 0.515625 C 15.734375 0.515625 15.601562 0.515625 15.46875 0.515625 C 15.34375 0.515625 15.207031 0.519531 15.0625 0.53125 C 14.925781 0.539062 14.785156 0.546875 14.640625 0.546875 C 14.492188 0.546875 14.34375 0.546875 14.1875 0.546875 C 14.039062 0.554688 13.882812 0.566406 13.71875 0.578125 L 13.6875 0.578125 C 13.394531 0.578125 13.164062 0.460938 13 0.234375 C 12.894531 0.0664062 12.84375 -0.128906 12.84375 -0.359375 L 12.84375 -0.390625 C 12.863281 -0.753906 12.988281 -1 13.21875 -1.125 C 13.28125 -1.164062 13.351562 -1.195312 13.4375 -1.21875 C 13.519531 -1.238281 13.582031 -1.25 13.625 -1.25 C 13.664062 -1.25 13.738281 -1.25 13.84375 -1.25 C 14.070312 -1.25 14.21875 -1.269531 14.28125 -1.3125 C 14.332031 -1.363281 14.359375 -1.40625 14.359375 -1.4375 C 14.390625 -1.570312 14.40625 -1.804688 14.40625 -2.140625 L 14.40625 -6.5625 C 14.40625 -7.039062 14.265625 -7.394531 13.984375 -7.625 C 13.679688 -7.894531 13.328125 -8.03125 12.921875 -8.03125 C 12.390625 -8.03125 11.972656 -7.910156 11.671875 -7.671875 C 11.378906 -7.453125 11.164062 -7.222656 11.03125 -6.984375 L 11.03125 -2.140625 C 11.03125 -2.117188 11.03125 -2.085938 11.03125 -2.046875 C 11.03125 -2.015625 11.03125 -1.972656 11.03125 -1.921875 C 11.03125 -1.878906 11.03125 -1.828125 11.03125 -1.765625 C 11.03125 -1.710938 11.019531 -1.644531 11 -1.5625 C 11 -1.4375 11.019531 -1.359375 11.0625 -1.328125 C 11.0625 -1.316406 11.078125 -1.304688 11.109375 -1.296875 C 11.140625 -1.296875 11.1875 -1.285156 11.25 -1.265625 C 11.320312 -1.253906 11.40625 -1.25 11.5 -1.25 L 11.625 -1.25 C 11.875 -1.25 12.078125 -1.1875 12.234375 -1.0625 C 12.390625 -0.925781 12.476562 -0.703125 12.5 -0.390625 L 12.5 -0.359375 C 12.5 -0.128906 12.445312 0.0664062 12.34375 0.234375 C 12.175781 0.460938 11.945312 0.578125 11.65625 0.578125 L 11.625 0.578125 C 10.8125 0.535156 10.113281 0.515625 9.53125 0.515625 C 9.25 0.515625 8.929688 0.519531 8.578125 0.53125 C 8.234375 0.539062 7.863281 0.554688 7.46875 0.578125 L 7.4375 0.578125 C 7.144531 0.578125 6.914062 0.460938 6.75 0.234375 C 6.644531 0.0664062 6.59375 -0.128906 6.59375 -0.359375 L 6.59375 -0.390625 C 6.613281 -0.753906 6.738281 -1 6.96875 -1.125 C 7.113281 -1.207031 7.320312 -1.25 7.59375 -1.25 C 7.78125 -1.25 7.914062 -1.269531 8 -1.3125 C 8.0625 -1.40625 8.09375 -1.515625 8.09375 -1.640625 C 8.070312 -1.703125 8.0625 -1.757812 8.0625 -1.8125 C 8.0625 -1.863281 8.0625 -1.910156 8.0625 -1.953125 C 8.0625 -1.992188 8.0625 -2.03125 8.0625 -2.0625 C 8.0625 -2.09375 8.0625 -2.117188 8.0625 -2.140625 L 8.0625 -6.5625 C 8.0625 -6.675781 8.054688 -6.773438 8.046875 -6.859375 C 8.035156 -6.953125 8.019531 -7.035156 8 -7.109375 C 7.976562 -7.179688 7.945312 -7.25 7.90625 -7.3125 C 7.875 -7.382812 7.835938 -7.441406 7.796875 -7.484375 C 7.753906 -7.535156 7.707031 -7.59375 7.65625 -7.65625 C 7.5 -7.78125 7.335938 -7.875 7.171875 -7.9375 C 7.003906 -8 6.816406 -8.03125 6.609375 -8.03125 C 6.078125 -8.03125 5.660156 -7.910156 5.359375 -7.671875 C 5.066406 -7.453125 4.84375 -7.21875 4.6875 -6.96875 L 4.6875 -2.140625 C 4.6875 -1.804688 4.703125 -1.570312 4.734375 -1.4375 L 4.8125 -1.3125 C 4.863281 -1.269531 5.007812 -1.25 5.25 -1.25 L 5.375 -1.25 C 5.601562 -1.25 5.789062 -1.191406 5.9375 -1.078125 C 6.125 -0.941406 6.226562 -0.710938 6.25 -0.390625 L 6.25 -0.359375 C 6.25 -0.296875 6.242188 -0.238281 6.234375 -0.1875 C 6.234375 -0.144531 6.222656 -0.0976562 6.203125 -0.046875 C 6.191406 -0.00390625 6.175781 0.0390625 6.15625 0.09375 C 6.132812 0.144531 6.113281 0.191406 6.09375 0.234375 C 6.007812 0.335938 5.90625 0.421875 5.78125 0.484375 C 5.65625 0.546875 5.53125 0.578125 5.40625 0.578125 L 5.375 0.578125 C 4.570312 0.535156 3.847656 0.515625 3.203125 0.515625 C 2.898438 0.515625 2.566406 0.519531 2.203125 0.53125 C 1.847656 0.539062 1.46875 0.554688 1.0625 0.578125 L 1.046875 0.578125 C 0.773438 0.578125 0.550781 0.46875 0.375 0.25 Z M 0.375 0.25 "/></g></g></g><g fill="#b19316" fill-opacity="1"><g transform="translate(61.839549, 21.133925)"><g><path d="M 2.796875 0.0625 C 2.046875 -0.40625 1.445312 -1.066406 1 -1.921875 C 0.550781 -2.753906 0.328125 -3.691406 0.328125 -4.734375 C 0.328125 -5.679688 0.554688 -6.578125 1.015625 -7.421875 C 1.472656 -8.265625 2.113281 -8.9375 2.9375 -9.4375 C 3.34375 -9.707031 3.773438 -9.90625 4.234375 -10.03125 C 4.691406 -10.15625 5.171875 -10.21875 5.671875 -10.21875 C 6.140625 -10.21875 6.613281 -10.160156 7.09375 -10.046875 C 7.269531 -10.003906 7.445312 -9.945312 7.625 -9.875 L 7.625 -12.296875 C 7.625 -12.410156 7.625 -12.515625 7.625 -12.609375 C 7.625 -12.703125 7.617188 -12.785156 7.609375 -12.859375 C 7.609375 -12.929688 7.609375 -12.988281 7.609375 -13.03125 C 7.597656 -13.050781 7.570312 -13.082031 7.53125 -13.125 C 7.53125 -13.125 7.515625 -13.128906 7.484375 -13.140625 C 7.453125 -13.148438 7.398438 -13.160156 7.328125 -13.171875 C 7.265625 -13.179688 7.1875 -13.1875 7.09375 -13.1875 C 6.820312 -13.1875 6.601562 -13.238281 6.4375 -13.34375 C 6.1875 -13.488281 6.0625 -13.75 6.0625 -14.125 C 6.0625 -14.320312 6.125 -14.503906 6.25 -14.671875 C 6.394531 -14.867188 6.597656 -14.988281 6.859375 -15.03125 C 7.691406 -15.132812 8.398438 -15.300781 8.984375 -15.53125 C 9.023438 -15.539062 9.0625 -15.550781 9.09375 -15.5625 C 9.132812 -15.582031 9.171875 -15.597656 9.203125 -15.609375 C 9.234375 -15.617188 9.265625 -15.628906 9.296875 -15.640625 C 9.335938 -15.648438 9.367188 -15.65625 9.390625 -15.65625 C 9.421875 -15.664062 9.453125 -15.675781 9.484375 -15.6875 C 9.523438 -15.695312 9.5625 -15.703125 9.59375 -15.703125 L 9.71875 -15.703125 C 9.96875 -15.703125 10.171875 -15.601562 10.328125 -15.40625 C 10.484375 -15.21875 10.5625 -15.007812 10.5625 -14.78125 L 10.5625 -1.921875 C 10.5625 -1.671875 10.632812 -1.488281 10.78125 -1.375 C 10.925781 -1.257812 11.222656 -1.203125 11.671875 -1.203125 C 11.910156 -1.203125 12.113281 -1.117188 12.28125 -0.953125 C 12.457031 -0.785156 12.546875 -0.585938 12.546875 -0.359375 C 12.546875 -0.128906 12.460938 0.0625 12.296875 0.21875 C 12.140625 0.375 11.957031 0.472656 11.75 0.515625 L 11.71875 0.515625 L 8.40625 0.75 L 8.359375 0.75 C 8.234375 0.75 8.097656 0.707031 7.953125 0.625 C 7.804688 0.550781 7.71875 0.425781 7.6875 0.25 C 7.675781 0.195312 7.664062 0.117188 7.65625 0.015625 C 7.445312 0.140625 7.226562 0.257812 7 0.375 C 6.40625 0.632812 5.816406 0.765625 5.234375 0.765625 C 4.359375 0.765625 3.546875 0.53125 2.796875 0.0625 Z M 6.921875 -1.515625 C 7.171875 -1.660156 7.40625 -1.835938 7.625 -2.046875 L 7.625 -7.25 C 7.519531 -7.53125 7.320312 -7.796875 7.03125 -8.046875 C 6.738281 -8.296875 6.351562 -8.421875 5.875 -8.421875 C 5.664062 -8.421875 5.46875 -8.390625 5.28125 -8.328125 C 5.09375 -8.265625 4.910156 -8.164062 4.734375 -8.03125 C 4.367188 -7.75 4.078125 -7.320312 3.859375 -6.75 C 3.628906 -6.15625 3.515625 -5.445312 3.515625 -4.625 C 3.515625 -3.664062 3.738281 -2.859375 4.1875 -2.203125 C 4.59375 -1.609375 5.175781 -1.3125 5.9375 -1.3125 C 6.007812 -1.3125 6.078125 -1.3125 6.140625 -1.3125 C 6.203125 -1.320312 6.265625 -1.332031 6.328125 -1.34375 C 6.390625 -1.351562 6.445312 -1.363281 6.5 -1.375 C 6.5625 -1.382812 6.613281 -1.394531 6.65625 -1.40625 C 6.707031 -1.425781 6.753906 -1.445312 6.796875 -1.46875 C 6.835938 -1.488281 6.878906 -1.503906 6.921875 -1.515625 Z M 6.921875 -1.515625 "/></g></g></g><g fill="#b19316" fill-opacity="1"><g transform="translate(73.922672, 21.133925)"><g><path d="M 2.796875 0.015625 C 1.984375 -0.460938 1.367188 -1.132812 0.953125 -2 C 0.535156 -2.832031 0.328125 -3.753906 0.328125 -4.765625 C 0.328125 -5.671875 0.535156 -6.539062 0.953125 -7.375 C 1.390625 -8.207031 1.992188 -8.890625 2.765625 -9.421875 C 3.554688 -9.953125 4.46875 -10.21875 5.5 -10.21875 C 6.875 -10.21875 7.945312 -9.851562 8.71875 -9.125 C 9.476562 -8.40625 9.914062 -7.441406 10.03125 -6.234375 L 10.03125 -6.1875 C 10.03125 -5.550781 9.828125 -5.09375 9.421875 -4.8125 C 9.085938 -4.59375 8.628906 -4.484375 8.046875 -4.484375 L 3.515625 -4.484375 C 3.578125 -3.535156 3.804688 -2.785156 4.203125 -2.234375 C 4.640625 -1.617188 5.332031 -1.3125 6.28125 -1.3125 C 6.375 -1.3125 6.46875 -1.3125 6.5625 -1.3125 C 6.664062 -1.320312 6.757812 -1.335938 6.84375 -1.359375 C 6.9375 -1.378906 7.019531 -1.398438 7.09375 -1.421875 C 7.175781 -1.441406 7.25 -1.46875 7.3125 -1.5 C 7.382812 -1.539062 7.457031 -1.582031 7.53125 -1.625 C 7.875 -1.832031 8.210938 -2.207031 8.546875 -2.75 L 8.5625 -2.8125 L 8.609375 -2.859375 C 8.691406 -2.921875 8.78125 -2.976562 8.875 -3.03125 C 8.976562 -3.082031 9.082031 -3.109375 9.1875 -3.109375 C 9.226562 -3.109375 9.273438 -3.097656 9.328125 -3.078125 C 9.390625 -3.066406 9.441406 -3.050781 9.484375 -3.03125 C 9.535156 -3.019531 9.582031 -3.003906 9.625 -2.984375 C 9.664062 -2.960938 9.703125 -2.945312 9.734375 -2.9375 C 10.023438 -2.738281 10.171875 -2.46875 10.171875 -2.125 C 10.171875 -2.039062 10.160156 -1.957031 10.140625 -1.875 C 10.117188 -1.800781 10.085938 -1.722656 10.046875 -1.640625 C 9.804688 -1.285156 9.535156 -0.953125 9.234375 -0.640625 C 8.929688 -0.335938 8.597656 -0.0820312 8.234375 0.125 C 7.492188 0.550781 6.660156 0.765625 5.734375 0.765625 C 4.585938 0.765625 3.609375 0.515625 2.796875 0.015625 Z M 6.375 -6.3125 C 6.625 -6.3125 6.785156 -6.335938 6.859375 -6.390625 C 6.929688 -6.453125 6.972656 -6.550781 6.984375 -6.6875 C 6.984375 -6.769531 6.976562 -6.847656 6.96875 -6.921875 C 6.96875 -6.992188 6.957031 -7.0625 6.9375 -7.125 C 6.925781 -7.195312 6.910156 -7.265625 6.890625 -7.328125 C 6.878906 -7.390625 6.863281 -7.445312 6.84375 -7.5 C 6.820312 -7.5625 6.796875 -7.617188 6.765625 -7.671875 C 6.742188 -7.722656 6.710938 -7.773438 6.671875 -7.828125 C 6.640625 -7.878906 6.601562 -7.929688 6.5625 -7.984375 C 6.4375 -8.140625 6.289062 -8.253906 6.125 -8.328125 C 5.957031 -8.398438 5.75 -8.4375 5.5 -8.4375 C 4.957031 -8.4375 4.503906 -8.222656 4.140625 -7.796875 C 3.847656 -7.421875 3.65625 -6.925781 3.5625 -6.3125 Z M 6.375 -6.3125 "/></g></g></g><g fill="#b19316" fill-opacity="1"><g transform="translate(84.380825, 21.133925)"><g><path d="M 1.671875 -0.75 C 0.773438 -1.75 0.328125 -3.078125 0.328125 -4.734375 C 0.359375 -5.773438 0.617188 -6.707031 1.109375 -7.53125 C 1.253906 -7.800781 1.425781 -8.054688 1.625 -8.296875 C 1.832031 -8.535156 2.050781 -8.75 2.28125 -8.9375 C 2.519531 -9.132812 2.78125 -9.3125 3.0625 -9.46875 C 3.675781 -9.820312 4.335938 -10.050781 5.046875 -10.15625 C 5.265625 -10.175781 5.5 -10.195312 5.75 -10.21875 C 6.070312 -10.21875 6.378906 -10.195312 6.671875 -10.15625 C 6.960938 -10.113281 7.242188 -10.050781 7.515625 -9.96875 C 7.785156 -9.882812 8.046875 -9.78125 8.296875 -9.65625 C 8.703125 -9.445312 9.007812 -9.15625 9.21875 -8.78125 C 9.4375 -8.414062 9.546875 -8 9.546875 -7.53125 C 9.546875 -6.96875 9.378906 -6.476562 9.046875 -6.0625 C 8.679688 -5.601562 8.203125 -5.375 7.609375 -5.375 C 7.234375 -5.375 6.90625 -5.476562 6.625 -5.6875 C 6.289062 -5.925781 6.125 -6.1875 6.125 -6.46875 C 6.125 -6.5625 6.132812 -6.644531 6.15625 -6.71875 C 6.175781 -6.800781 6.203125 -6.859375 6.234375 -6.890625 C 6.273438 -6.921875 6.304688 -6.941406 6.328125 -6.953125 C 6.359375 -6.972656 6.390625 -6.988281 6.421875 -7 C 6.460938 -7.019531 6.484375 -7.035156 6.484375 -7.046875 C 6.578125 -7.117188 6.664062 -7.21875 6.75 -7.34375 C 6.769531 -7.382812 6.785156 -7.425781 6.796875 -7.46875 C 6.804688 -7.507812 6.8125 -7.554688 6.8125 -7.609375 C 6.8125 -7.648438 6.8125 -7.6875 6.8125 -7.71875 C 6.8125 -7.757812 6.804688 -7.796875 6.796875 -7.828125 C 6.796875 -7.859375 6.785156 -7.890625 6.765625 -7.921875 C 6.753906 -7.953125 6.742188 -7.976562 6.734375 -8 C 6.722656 -8.019531 6.707031 -8.039062 6.6875 -8.0625 C 6.675781 -8.082031 6.660156 -8.097656 6.640625 -8.109375 C 6.617188 -8.117188 6.59375 -8.140625 6.5625 -8.171875 C 6.457031 -8.242188 6.335938 -8.300781 6.203125 -8.34375 C 6.066406 -8.382812 5.910156 -8.40625 5.734375 -8.40625 C 5.566406 -8.40625 5.414062 -8.394531 5.28125 -8.375 C 4.675781 -8.28125 4.253906 -8 4.015625 -7.53125 C 3.671875 -6.800781 3.5 -5.890625 3.5 -4.796875 C 3.5 -3.734375 3.726562 -2.867188 4.1875 -2.203125 C 4.613281 -1.609375 5.175781 -1.3125 5.875 -1.3125 C 6.039062 -1.3125 6.203125 -1.320312 6.359375 -1.34375 C 6.515625 -1.363281 6.65625 -1.394531 6.78125 -1.4375 C 6.914062 -1.488281 7.039062 -1.550781 7.15625 -1.625 C 7.5 -1.832031 7.820312 -2.164062 8.125 -2.625 C 8.195312 -2.738281 8.289062 -2.828125 8.40625 -2.890625 C 8.53125 -2.953125 8.65625 -2.984375 8.78125 -2.984375 C 8.914062 -2.984375 9.070312 -2.941406 9.25 -2.859375 C 9.40625 -2.785156 9.523438 -2.671875 9.609375 -2.515625 C 9.703125 -2.367188 9.75 -2.210938 9.75 -2.046875 C 9.75 -1.898438 9.703125 -1.753906 9.609375 -1.609375 L 9.609375 -1.578125 L 9.59375 -1.578125 C 9.09375 -0.859375 8.46875 -0.289062 7.71875 0.125 C 6.96875 0.550781 6.195312 0.765625 5.40625 0.765625 C 3.832031 0.765625 2.585938 0.257812 1.671875 -0.75 Z M 1.671875 -0.75 "/></g></g></g><g fill="#b19316" fill-opacity="1"><g transform="translate(94.276494, 21.133925)"><g><path d="M 2.921875 0.015625 C 2.710938 -0.109375 2.515625 -0.242188 2.328125 -0.390625 C 2.148438 -0.535156 1.976562 -0.691406 1.8125 -0.859375 C 1.65625 -1.023438 1.507812 -1.203125 1.375 -1.390625 C 1.25 -1.578125 1.128906 -1.765625 1.015625 -1.953125 C 0.554688 -2.785156 0.328125 -3.660156 0.328125 -4.578125 C 0.328125 -5.722656 0.597656 -6.726562 1.140625 -7.59375 C 1.671875 -8.4375 2.351562 -9.082031 3.1875 -9.53125 C 4.019531 -9.988281 4.863281 -10.21875 5.71875 -10.21875 C 6.226562 -10.21875 6.71875 -10.15625 7.1875 -10.03125 C 7.664062 -9.90625 8.101562 -9.71875 8.5 -9.46875 C 9.320312 -8.96875 9.957031 -8.300781 10.40625 -7.46875 C 10.863281 -6.644531 11.09375 -5.773438 11.09375 -4.859375 C 11.09375 -3.710938 10.820312 -2.710938 10.28125 -1.859375 C 9.738281 -1.003906 9.050781 -0.351562 8.21875 0.09375 C 7.382812 0.539062 6.550781 0.765625 5.71875 0.765625 C 4.664062 0.765625 3.734375 0.515625 2.921875 0.015625 Z M 7.34375 -1.984375 C 7.40625 -2.117188 7.46875 -2.265625 7.53125 -2.421875 C 7.59375 -2.585938 7.648438 -2.757812 7.703125 -2.9375 C 7.753906 -3.113281 7.796875 -3.300781 7.828125 -3.5 C 7.859375 -3.707031 7.878906 -3.925781 7.890625 -4.15625 C 7.910156 -4.382812 7.921875 -4.617188 7.921875 -4.859375 C 7.921875 -5.953125 7.71875 -6.84375 7.3125 -7.53125 C 6.96875 -8.113281 6.4375 -8.40625 5.71875 -8.40625 C 5.3125 -8.40625 4.976562 -8.332031 4.71875 -8.1875 C 4.457031 -8.039062 4.242188 -7.804688 4.078125 -7.484375 C 3.953125 -7.242188 3.847656 -6.984375 3.765625 -6.703125 C 3.679688 -6.421875 3.613281 -6.101562 3.5625 -5.75 C 3.519531 -5.40625 3.5 -5.03125 3.5 -4.625 C 3.5 -3.53125 3.703125 -2.632812 4.109375 -1.9375 C 4.285156 -1.632812 4.5 -1.410156 4.75 -1.265625 C 5 -1.117188 5.320312 -1.046875 5.71875 -1.046875 C 5.976562 -1.046875 6.203125 -1.078125 6.390625 -1.140625 C 6.585938 -1.210938 6.765625 -1.3125 6.921875 -1.4375 C 7.078125 -1.570312 7.21875 -1.753906 7.34375 -1.984375 Z M 7.34375 -1.984375 "/></g></g></g><g fill="#b19316" fill-opacity="1"><g transform="translate(105.692961, 21.133925)"><g><path d="M 2.375 -0.25 C 1.71875 -0.914062 1.390625 -1.785156 1.390625 -2.859375 L 1.390625 -6.71875 C 1.390625 -7.050781 1.382812 -7.289062 1.375 -7.4375 L 1.296875 -7.546875 C 1.234375 -7.585938 1.085938 -7.609375 0.859375 -7.609375 C 0.585938 -7.609375 0.367188 -7.65625 0.203125 -7.75 C 0.0546875 -7.832031 -0.0390625 -7.945312 -0.09375 -8.09375 C -0.144531 -8.238281 -0.171875 -8.390625 -0.171875 -8.546875 C -0.171875 -8.742188 -0.109375 -8.925781 0.015625 -9.09375 C 0.0859375 -9.1875 0.175781 -9.265625 0.28125 -9.328125 C 0.394531 -9.390625 0.507812 -9.425781 0.625 -9.4375 C 1.457031 -9.550781 2.164062 -9.71875 2.75 -9.9375 C 2.875 -10 2.984375 -10.039062 3.078125 -10.0625 C 3.179688 -10.082031 3.273438 -10.097656 3.359375 -10.109375 L 3.484375 -10.109375 C 3.734375 -10.109375 3.9375 -10.015625 4.09375 -9.828125 C 4.25 -9.640625 4.328125 -9.425781 4.328125 -9.1875 L 4.328125 -2.875 C 4.328125 -2.40625 4.46875 -2.050781 4.75 -1.8125 C 5.050781 -1.550781 5.40625 -1.421875 5.8125 -1.421875 C 6.269531 -1.421875 6.675781 -1.507812 7.03125 -1.6875 C 7.082031 -1.726562 7.132812 -1.769531 7.1875 -1.8125 C 7.351562 -1.925781 7.492188 -2.039062 7.609375 -2.15625 C 7.734375 -2.269531 7.820312 -2.367188 7.875 -2.453125 L 7.875 -6.71875 C 7.875 -6.769531 7.875 -6.820312 7.875 -6.875 C 7.875 -6.9375 7.875 -6.988281 7.875 -7.03125 C 7.875 -7.082031 7.875 -7.125 7.875 -7.15625 C 7.875 -7.195312 7.867188 -7.234375 7.859375 -7.265625 C 7.859375 -7.296875 7.859375 -7.328125 7.859375 -7.359375 C 7.859375 -7.390625 7.859375 -7.414062 7.859375 -7.4375 C 7.847656 -7.46875 7.820312 -7.503906 7.78125 -7.546875 C 7.78125 -7.546875 7.765625 -7.546875 7.734375 -7.546875 C 7.703125 -7.554688 7.648438 -7.566406 7.578125 -7.578125 C 7.515625 -7.597656 7.4375 -7.609375 7.34375 -7.609375 C 7.070312 -7.609375 6.851562 -7.65625 6.6875 -7.75 C 6.4375 -7.90625 6.3125 -8.171875 6.3125 -8.546875 C 6.3125 -8.742188 6.375 -8.925781 6.5 -9.09375 C 6.570312 -9.1875 6.660156 -9.265625 6.765625 -9.328125 C 6.878906 -9.390625 6.992188 -9.425781 7.109375 -9.4375 C 7.523438 -9.5 7.910156 -9.570312 8.265625 -9.65625 C 8.617188 -9.738281 8.941406 -9.832031 9.234375 -9.9375 C 9.359375 -10 9.46875 -10.039062 9.5625 -10.0625 C 9.664062 -10.082031 9.757812 -10.097656 9.84375 -10.109375 L 9.96875 -10.109375 C 10.21875 -10.109375 10.421875 -10.015625 10.578125 -9.828125 C 10.734375 -9.640625 10.8125 -9.425781 10.8125 -9.1875 L 10.8125 -1.984375 C 10.8125 -1.734375 10.882812 -1.550781 11.03125 -1.4375 C 11.175781 -1.320312 11.476562 -1.265625 11.9375 -1.265625 C 12.1875 -1.265625 12.394531 -1.171875 12.5625 -0.984375 C 12.726562 -0.796875 12.8125 -0.585938 12.8125 -0.359375 C 12.8125 -0.128906 12.734375 0.0625 12.578125 0.21875 C 12.421875 0.375 12.238281 0.472656 12.03125 0.515625 L 11.984375 0.515625 L 8.625 0.75 L 8.59375 0.75 C 8.46875 0.75 8.332031 0.707031 8.1875 0.625 C 8.039062 0.550781 7.953125 0.425781 7.921875 0.25 C 7.890625 0.15625 7.875 0.0078125 7.875 -0.1875 L 7.875 -0.234375 C 7.8125 -0.171875 7.757812 -0.117188 7.71875 -0.078125 C 7.40625 0.148438 7.03125 0.347656 6.59375 0.515625 C 6.363281 0.597656 6.113281 0.660156 5.84375 0.703125 C 5.570312 0.742188 5.289062 0.765625 5 0.765625 C 4.46875 0.765625 3.976562 0.679688 3.53125 0.515625 C 3.09375 0.347656 2.707031 0.09375 2.375 -0.25 Z M 2.375 -0.25 "/></g></g></g><g clip-path="url(#681c1f6eb3)"><g fill="#b19316" fill-opacity="1"><g transform="translate(118.109417, 21.133925)"><g><path d="M 1.578125 0.125 C 0.703125 -0.363281 0.265625 -1.066406 0.265625 -1.984375 C 0.265625 -2.523438 0.441406 -2.96875 0.796875 -3.3125 C 0.960938 -3.488281 1.160156 -3.625 1.390625 -3.71875 C 1.617188 -3.8125 1.859375 -3.859375 2.109375 -3.859375 C 2.191406 -3.859375 2.269531 -3.847656 2.34375 -3.828125 C 2.414062 -3.816406 2.488281 -3.800781 2.5625 -3.78125 C 2.644531 -3.757812 2.71875 -3.726562 2.78125 -3.6875 C 2.851562 -3.65625 2.925781 -3.613281 3 -3.5625 C 3.007812 -3.5625 3.039062 -3.539062 3.09375 -3.5 C 3.144531 -3.46875 3.179688 -3.441406 3.203125 -3.421875 C 3.222656 -3.398438 3.253906 -3.367188 3.296875 -3.328125 C 3.335938 -3.285156 3.367188 -3.242188 3.390625 -3.203125 C 3.410156 -3.160156 3.429688 -3.109375 3.453125 -3.046875 C 3.472656 -2.984375 3.484375 -2.921875 3.484375 -2.859375 C 3.484375 -2.734375 3.46875 -2.628906 3.4375 -2.546875 C 3.40625 -2.460938 3.375 -2.410156 3.34375 -2.390625 C 3.3125 -2.367188 3.265625 -2.335938 3.203125 -2.296875 C 3.148438 -2.265625 3.117188 -2.242188 3.109375 -2.234375 C 3.035156 -2.160156 3 -2.039062 3 -1.875 C 3 -1.65625 3.109375 -1.472656 3.328125 -1.328125 C 3.617188 -1.140625 4.078125 -1.046875 4.703125 -1.046875 C 5.234375 -1.046875 5.640625 -1.148438 5.921875 -1.359375 C 6.160156 -1.535156 6.28125 -1.796875 6.28125 -2.140625 C 6.28125 -2.253906 6.265625 -2.347656 6.234375 -2.421875 C 6.203125 -2.503906 6.160156 -2.578125 6.109375 -2.640625 C 6.023438 -2.722656 5.929688 -2.796875 5.828125 -2.859375 C 5.734375 -2.921875 5.625 -2.984375 5.5 -3.046875 C 5.363281 -3.097656 5.1875 -3.15625 4.96875 -3.21875 C 4.75 -3.289062 4.507812 -3.367188 4.25 -3.453125 C 3.90625 -3.554688 3.585938 -3.660156 3.296875 -3.765625 C 3.003906 -3.867188 2.742188 -3.96875 2.515625 -4.0625 C 2.253906 -4.175781 2.015625 -4.316406 1.796875 -4.484375 C 1.585938 -4.660156 1.390625 -4.867188 1.203125 -5.109375 C 0.828125 -5.578125 0.640625 -6.1875 0.640625 -6.9375 C 0.640625 -7.644531 0.863281 -8.257812 1.3125 -8.78125 C 1.519531 -9.03125 1.757812 -9.242188 2.03125 -9.421875 C 2.300781 -9.597656 2.601562 -9.75 2.9375 -9.875 C 3.144531 -9.945312 3.351562 -10.003906 3.5625 -10.046875 C 3.78125 -10.097656 4.003906 -10.140625 4.234375 -10.171875 C 4.460938 -10.203125 4.695312 -10.21875 4.9375 -10.21875 C 5.851562 -10.21875 6.65625 -10.019531 7.34375 -9.625 C 8.113281 -9.164062 8.5 -8.53125 8.5 -7.71875 C 8.5 -7.21875 8.34375 -6.785156 8.03125 -6.421875 C 7.695312 -6.035156 7.265625 -5.84375 6.734375 -5.84375 C 6.398438 -5.84375 6.101562 -5.9375 5.84375 -6.125 C 5.820312 -6.125 5.785156 -6.140625 5.734375 -6.171875 C 5.691406 -6.210938 5.660156 -6.242188 5.640625 -6.265625 C 5.617188 -6.285156 5.585938 -6.316406 5.546875 -6.359375 C 5.503906 -6.398438 5.472656 -6.441406 5.453125 -6.484375 C 5.429688 -6.523438 5.410156 -6.578125 5.390625 -6.640625 C 5.367188 -6.703125 5.359375 -6.769531 5.359375 -6.84375 C 5.359375 -6.96875 5.375 -7.070312 5.40625 -7.15625 C 5.445312 -7.238281 5.484375 -7.289062 5.515625 -7.3125 C 5.546875 -7.332031 5.582031 -7.347656 5.625 -7.359375 C 5.664062 -7.367188 5.695312 -7.382812 5.71875 -7.40625 C 5.78125 -7.46875 5.847656 -7.550781 5.921875 -7.65625 C 5.953125 -7.675781 5.96875 -7.722656 5.96875 -7.796875 C 5.945312 -7.992188 5.84375 -8.144531 5.65625 -8.25 C 5.382812 -8.40625 5.0625 -8.484375 4.6875 -8.484375 L 4.4375 -8.46875 C 4.269531 -8.445312 4.113281 -8.414062 3.96875 -8.375 C 3.832031 -8.332031 3.703125 -8.269531 3.578125 -8.1875 C 3.347656 -8.050781 3.234375 -7.863281 3.234375 -7.625 C 3.234375 -7.476562 3.242188 -7.351562 3.265625 -7.25 C 3.296875 -7.15625 3.332031 -7.070312 3.375 -7 C 3.414062 -6.957031 3.457031 -6.914062 3.5 -6.875 C 3.539062 -6.832031 3.59375 -6.789062 3.65625 -6.75 C 3.726562 -6.707031 3.816406 -6.664062 3.921875 -6.625 C 4.066406 -6.5625 4.269531 -6.484375 4.53125 -6.390625 C 4.789062 -6.296875 5.101562 -6.195312 5.46875 -6.09375 C 5.644531 -6.019531 5.816406 -5.953125 5.984375 -5.890625 C 6.148438 -5.835938 6.304688 -5.785156 6.453125 -5.734375 C 6.609375 -5.679688 6.753906 -5.625 6.890625 -5.5625 C 7.023438 -5.507812 7.144531 -5.457031 7.25 -5.40625 C 7.75 -5.164062 8.144531 -4.835938 8.4375 -4.421875 C 8.75 -3.984375 8.90625 -3.429688 8.90625 -2.765625 C 8.90625 -2.429688 8.851562 -2.109375 8.75 -1.796875 C 8.644531 -1.484375 8.492188 -1.191406 8.296875 -0.921875 C 8.097656 -0.640625 7.867188 -0.394531 7.609375 -0.1875 C 7.347656 0.0195312 7.050781 0.191406 6.71875 0.328125 C 6.226562 0.554688 5.691406 0.695312 5.109375 0.75 C 4.921875 0.757812 4.734375 0.765625 4.546875 0.765625 C 3.335938 0.765625 2.347656 0.550781 1.578125 0.125 Z M 1.578125 0.125 "/></g></g></g></g></svg>